<svg width="30" height="30" viewBox="0 0 30 30" fill="none" xmlns="http://www.w3.org/2000/svg">
<path d="M16.0412 27.6235C16.0868 27.7371 16.1661 27.834 16.2683 27.9013C16.3706 27.9686 16.491 28.0029 16.6134 27.9998C16.7357 27.9967 16.8542 27.9562 16.9529 27.8838C17.0516 27.8113 17.1258 27.7105 17.1655 27.5947L24.9646 4.79731C25.003 4.69099 25.0103 4.57594 24.9857 4.46561C24.9611 4.35528 24.9056 4.25424 24.8257 4.17431C24.7458 4.09438 24.6447 4.03887 24.5344 4.01427C24.4241 3.98966 24.309 3.99699 24.2027 4.03539L1.40532 11.8345C1.28953 11.8742 1.18866 11.9484 1.11624 12.0471C1.04382 12.1458 1.00333 12.2643 1.0002 12.3866C0.997062 12.509 1.03144 12.6294 1.0987 12.7317C1.16597 12.8339 1.26292 12.9132 1.37652 12.9588L10.8914 16.7743C11.1922 16.8948 11.4655 17.0748 11.6948 17.3037C11.9241 17.5326 12.1047 17.8056 12.2257 18.1062L16.0412 27.6235Z" fill="white"/>
<path d="M24.8218 4.17938L11.6948 17.3037Z" fill="white"/>
<path d="M11.6948 17.3037C11.4655 17.0748 11.1922 16.8948 10.8914 16.7743L1.37652 12.9588C1.26292 12.9132 1.16597 12.8339 1.0987 12.7317C1.03144 12.6294 0.997062 12.509 1.0002 12.3866C1.00333 12.2643 1.04382 12.1458 1.11624 12.0471C1.18866 11.9484 1.28953 11.8742 1.40532 11.8345L24.2027 4.03539C24.309 3.99699 24.4241 3.98966 24.5344 4.01427C24.6447 4.03887 24.7458 4.09438 24.8257 4.17431C24.9056 4.25424 24.9611 4.35528 24.9857 4.46561C25.0103 4.57594 25.003 4.69099 24.9646 4.79731L17.1655 27.5947C17.1258 27.7105 17.0516 27.8113 16.9529 27.8838C16.8542 27.9562 16.7357 27.9967 16.6134 27.9998C16.491 28.0029 16.3706 27.9686 16.2683 27.9013C16.1661 27.834 16.0868 27.7371 16.0412 27.6235L12.2257 18.1062C12.1047 17.8056 11.9241 17.5326 11.6948 17.3037ZM11.6948 17.3037L24.8218 4.17938" stroke="black" stroke-width="2" stroke-linecap="round" stroke-linejoin="round"/>
</svg>
